<?xml version="1.0" standalone="no"?><!DOCTYPE svg PUBLIC "-//W3C//DTD SVG 1.1//EN" "http://www.w3.org/Graphics/SVG/1.1/DTD/svg11.dtd"><svg width="200" height="200" viewBox="0 0 200 200" version="1.1" xmlns="http://www.w3.org/2000/svg" xmlns:xlink="http://www.w3.org/1999/xlink"><defs><style type="text/css"><![CDATA[
@font-face { font-family: ifont; src: url("//at.alicdn.com/t/font_1442373896_4754455.eot?#iefix") format("embedded-opentype"), url("//at.alicdn.com/t/font_1442373896_4754455.woff") format("woff"), url("//at.alicdn.com/t/font_1442373896_4754455.ttf") format("truetype"), url("//at.alicdn.com/t/font_1442373896_4754455.svg#ifont") format("svg"); }

]]></style></defs><g class="transform-group"><g transform="scale(0.1953125, 0.1953125)"><path d="M437.5 824.5q37 16 70 16 188 0 188-167.5 0-57-20.5-90-13.5-22-30.75-37t-33.75-23.25-40.25-12.5-42-5.25-47.25-1q-36.5 0-50.5 5 0 26.5 2.5 79.5t2.5 79q0 4-0.5 33.75t2.5 48.25 2.25 41.75 6 33.25zm-7-373q21 3.5 54.5 3.5 41 0 71.5-6.5t55-22.25 37.25-44.75 12.75-71q0-35-14.5-61.25t-39.5-41-54-21.75-62-7q-25 0-65 6.5 0 25 2 75.5t2 76q0 13.5 2.5 40t2.5 39.5q0 23 0.5 34.5zm-270.5 444.5l1-47q7.5-2 42.5-8t53-13.5q3.5-6 6.25-13.5t4.25-16.75 2.75-16.25 1.5-18.75 2.5-17l0-32.75q0-491-11-512.5-2-4-11-7.25t-22.25-5.5-24.75-3.5-24.25-2.25-15.25-1.5l-2-41.5q49-1 170-5.75t186.5-4.75q11.5 0 34.25 2.5t33.75 2.5q35 0 68.25 6.5t64.25 21 54 35.5 37 52.25 14 68.75q0 26-8.25 47.75t-19.5 36-32.25 28.75-36.5 22.5-42 20q77 17.5 128.25 67t51.25 124q0 50-17.5 89.75t-46.75 65.25-69 42.75-81.75 24.25-88 7q-22 0-66-1.5t-66-1.5q-53 0-153.5 5.5t-115.5 6z" fill="#fff"></path></g></g></svg>