<?xml version="1.0" standalone="no"?><!DOCTYPE svg PUBLIC "-//W3C//DTD SVG 1.1//EN"
        "http://www.w3.org/Graphics/SVG/1.1/DTD/svg11.dtd">
<svg width="128" height="128" viewBox="0 0 128 128" version="1.1" xmlns="http://www.w3.org/2000/svg"
     xmlns:xlink="http://www.w3.org/1999/xlink">
    <defs>
        <style type="text/css"><![CDATA[


]]></style>
    </defs>
    <g class="transform-group">
        <g transform="scale(0.125, 0.125)">
            <path d="M332.8 467.2l0 102.4 185.6 0C492.8 646.4 422.4 704 332.8 704c-108.8 0-192-83.2-192-192s83.2-192 192-192C384 320 435.2 339.2 467.2 377.6l76.8-76.8c-57.6-51.2-128-89.6-211.2-89.6C166.4 211.2 32 345.6 32 512s134.4 300.8 300.8 300.8S633.6 678.4 633.6 512c0-12.8 0-32-6.4-44.8L332.8 467.2zM992 473.6 883.2 473.6 883.2 371.2 812.8 371.2 812.8 473.6 710.4 473.6 710.4 550.4 812.8 550.4 812.8 652.8 883.2 652.8 883.2 550.4 992 550.4Z"
                  fill="#ffffff"></path>
        </g>
    </g>
</svg>