<?xml version="1.0" standalone="no"?><!DOCTYPE svg PUBLIC "-//W3C//DTD SVG 1.1//EN" "http://www.w3.org/Graphics/SVG/1.1/DTD/svg11.dtd"><svg width="200.1953125" height="200" viewBox="0 0 200.1953125 200" version="1.1" xmlns="http://www.w3.org/2000/svg" xmlns:xlink="http://www.w3.org/1999/xlink"><defs><style type="text/css"><![CDATA[
@font-face { font-family: ifont; src: url("//at.alicdn.com/t/font_1442373896_4754455.eot?#iefix") format("embedded-opentype"), url("//at.alicdn.com/t/font_1442373896_4754455.woff") format("woff"), url("//at.alicdn.com/t/font_1442373896_4754455.ttf") format("truetype"), url("//at.alicdn.com/t/font_1442373896_4754455.svg#ifont") format("svg"); }

]]></style></defs><g class="transform-group"><g transform="scale(0.1953125, 0.1953125)"><path d="M906.4448 477.83936l-170.14784 0c39.50592-239.22688 209.3056-283.50464 219.19744-285.88032 47.22688-10.38336 77.39392-56.87296 67.46112-104.32512-9.97376-47.69792-56.77056-78.21312-104.48896-68.32128-9.99424 2.08896-100.29056 22.77376-189.70624 104.01792-77.45536 70.38976-168.93952 201.5232-176.55808 429.24032-0.22528 2.47808-0.73728 4.87424-0.73728 7.39328l0 329.0112c0 64.9216 52.6336 117.5552 117.5552 117.5552L906.4448 1006.53056c64.9216 0 117.5552-52.6336 117.5552-117.5552L1024 595.39456C1024 530.47296 971.3664 477.83936 906.4448 477.83936zM354.97984 477.83936 184.832 477.83936c39.50592-239.22688 209.3056-283.50464 219.19744-285.88032 47.22688-10.38336 77.39392-56.87296 67.46112-104.32512C461.5168 39.936 414.72 9.4208 367.0016 19.31264c-9.99424 2.08896-100.29056 22.77376-189.70624 104.01792-77.45536 70.38976-168.93952 201.5232-176.55808 429.24032C0.512 555.04896 0 557.44512 0 559.98464l0 329.0112c0 64.9216 52.6336 117.5552 117.5552 117.5552l237.42464 0c64.9216 0 117.5552-52.6336 117.5552-117.5552L472.53504 595.39456C472.53504 530.47296 419.90144 477.83936 354.97984 477.83936z" fill="#696969"></path></g></g></svg>