<?xml version="1.0" standalone="no"?><!DOCTYPE svg PUBLIC "-//W3C//DTD SVG 1.1//EN" "http://www.w3.org/Graphics/SVG/1.1/DTD/svg11.dtd"><svg width="201.7578125" height="200" viewBox="0 0 201.7578125 200" version="1.1" xmlns="http://www.w3.org/2000/svg" xmlns:xlink="http://www.w3.org/1999/xlink"><defs><style type="text/css"><![CDATA[
@font-face { font-family: ifont; src: url("//at.alicdn.com/t/font_1442373896_4754455.eot?#iefix") format("embedded-opentype"), url("//at.alicdn.com/t/font_1442373896_4754455.woff") format("woff"), url("//at.alicdn.com/t/font_1442373896_4754455.ttf") format("truetype"), url("//at.alicdn.com/t/font_1442373896_4754455.svg#ifont") format("svg"); }

]]></style></defs><g class="transform-group"><g transform="scale(0.1953125, 0.1953125)"><path d="M6.86094 574.272635c2.72915 0.927971 4.36644 1.542554 6.036307 2.042815 102.836877 30.834694 205.691941 61.610628 308.477252 92.617006 5.774485 1.74042 9.647859 1.133032 14.476185-2.709963 139.836191-111.287947 279.819882-222.392818 419.783187-333.522072 1.308913-1.039095 2.650203-2.03562 3.976504-3.05253 0.19107 0.255827 0.379942 0.511453 0.571013 0.76728-110.682557 122.603475-221.364915 245.209948-332.55173 368.376441 126.638539 41.56382 252.598738 82.90559 378.940079 124.371476 70.109066-253.111191 140.129192-505.894004 210.528462-760.052285C679.941592 233.707538 343.893432 403.739457 6.86094 574.272635zM413.975317 960.891508c46.966557-55.493375 93.22959-110.154715 139.958508-165.36928-47.036309-13.888983-93.365898-27.571706-139.959507-41.330378C413.975317 823.226644 413.975317 891.510148 413.975317 960.891508z" fill="#696969"></path></g></g></svg>