<?xml version="1.0" standalone="no"?><!DOCTYPE svg PUBLIC "-//W3C//DTD SVG 1.1//EN" "http://www.w3.org/Graphics/SVG/1.1/DTD/svg11.dtd"><svg width="128.125" height="128" viewBox="0 0 128.125 128" version="1.1" xmlns="http://www.w3.org/2000/svg" xmlns:xlink="http://www.w3.org/1999/xlink"><defs><style type="text/css"><![CDATA[


]]></style></defs><g class="transform-group"><g transform="scale(0.125, 0.125)"><path d="M1024 194.416c-37.68 16.704-78.16 28-120.656 33.072 43.376-26 76.688-67.168 92.368-116.224-40.592 24.08-85.552 41.552-133.408 50.976-38.32-40.832-92.928-66.336-153.344-66.336-116.016 0-210.08 94.064-210.08 210.08 0 16.464 1.856 32.496 5.44 47.872-174.592-8.768-329.408-92.4-433.024-219.504-18.08 31.024-28.448 67.12-28.448 105.616 0 72.896 37.088 137.2 93.456 174.864-34.432-1.088-66.832-10.544-95.152-26.272-0.016 0.88-0.016 1.76-0.016 2.64 0 101.792 72.416 186.688 168.528 206-17.632 4.8-36.192 7.376-55.344 7.376-13.536 0-26.704-1.328-39.52-3.776 26.736 83.456 104.32 144.208 196.256 145.888-71.904 56.352-162.48 89.936-260.912 89.936-16.96 0-33.68-0.992-50.112-2.944 92.976 59.616 203.408 94.4 322.048 94.4 386.416 0 597.728-320.128 597.728-597.744 0-9.104-0.208-18.176-0.608-27.184 41.056-29.616 76.672-66.624 104.832-108.752z" fill="#ffffff"></path></g></g></svg>