<?xml version="1.0" standalone="no"?><!DOCTYPE svg PUBLIC "-//W3C//DTD SVG 1.1//EN" "http://www.w3.org/Graphics/SVG/1.1/DTD/svg11.dtd"><svg width="200" height="200" viewBox="0 0 200 200" version="1.1" xmlns="http://www.w3.org/2000/svg" xmlns:xlink="http://www.w3.org/1999/xlink"><defs><style type="text/css"><![CDATA[
@font-face { font-family: ifont; src: url("//at.alicdn.com/t/font_1442373896_4754455.eot?#iefix") format("embedded-opentype"), url("//at.alicdn.com/t/font_1442373896_4754455.woff") format("woff"), url("//at.alicdn.com/t/font_1442373896_4754455.ttf") format("truetype"), url("//at.alicdn.com/t/font_1442373896_4754455.svg#ifont") format("svg"); }

]]></style></defs><g class="transform-group"><g transform="scale(0.1953125, 0.1953125)"><path d="M366.528 808.96c-71.488-28.48-92.544-75.072-109.376-141.632C244.48 619.968 256 549.12 256 410.56L256 159.104C256 122.048 217.28 128 184.704 128L135.232 128C129.024 128 128 103.104 128 95.744L128 72.512C128 66.048 129.024 64 137.472 64c10.496 0 62.016 3.2 143.872 3.2S420.416 64 431.936 64C440.32 64 448 66.048 448 70.4l0 27.52C448 103.104 433.664 128 426.24 128L373.76 128C343.36 128 324.736 136.768 322.752 159.744 321.728 169.472 320 232.128 320 285.888l0 69.76c0 56 4.736 190.208 5.888 224.064 1.152 48.64 9.664 98.176 33.856 134.08 38.912 57.216 106.304 76.224 167.296 76.224 59.904 0 103.104-20.096 140.032-58.24C707.968 687.36 704 624.128 704 545.792L704 319.616c0-80.128 15.616-129.984 12.48-156.48C713.28 135.616 714.176 128 686.848 128l-46.208 0C634.368 128 640 102.016 640 96.768L640 71.36C640 66.048 637.696 64 643.968 64c10.496 0 57.216 3.2 127.616 3.2 72.448 0 105.28-3.2 114.624-3.2C895.744 64 896 68.096 896 71.36l0 23.232C896 100.992 894.848 128 889.6 128l-43.008 0c-38.848 0-42.112 18.112-45.248 30.848-1.984 10.624-1.984 154.816-1.984 169.6s-2.112 196.992-5.376 238.272c-6.336 86.528-29.376 151.616-88.192 202.432-41.984 39.04-106.176 62.656-197.44 62.656C453.76 831.808 401.152 823.808 366.528 808.96zM64 896l896 0 0 64-896 0 0-64Z" fill="#fff"></path></g></g></svg>